<?xml version="1.0" encoding="UTF-8" standalone="no"?>
<svg
   width="238"
   height="48"
   viewBox="0 0 238 48"
   fill="none"
   version="1.1"
   id="svg9"
   sodipodi:docname="logo.svg"
   inkscape:version="1.4 (e7c3feb1, 2024-10-09)"
   xmlns:inkscape="http://www.inkscape.org/namespaces/inkscape"
   xmlns:sodipodi="http://sodipodi.sourceforge.net/DTD/sodipodi-0.dtd"
   xmlns="http://www.w3.org/2000/svg"
   xmlns:svg="http://www.w3.org/2000/svg"
   xmlns:rdf="http://www.w3.org/1999/02/22-rdf-syntax-ns#"
   xmlns:cc="http://creativecommons.org/ns#"
   xmlns:dc="http://purl.org/dc/elements/1.1/">
  <sodipodi:namedview
     id="namedview9"
     pagecolor="#ffffff"
     bordercolor="#000000"
     borderopacity="0.25"
     inkscape:showpageshadow="2"
     inkscape:pageopacity="0.0"
     inkscape:pagecheckerboard="0"
     inkscape:deskcolor="#d1d1d1"
     inkscape:zoom="2.5978909"
     inkscape:cx="133.76235"
     inkscape:cy="23.865513"
     inkscape:window-width="1920"
     inkscape:window-height="1027"
     inkscape:window-x="1728"
     inkscape:window-y="25"
     inkscape:window-maximized="1"
     inkscape:current-layer="svg9"
     showgrid="false" />
  <title
     id="title1">Silverstripe Search</title>
  <rect
     style="display:inline;fill:#005ae0;fill-opacity:1;stroke:#000000;stroke-width:0;stroke-dasharray:none"
     id="rect10"
     width="237.87733"
     height="47.803047"
     x="0.09561988"
     y="0.30704862"
     rx="4.2095232"
     sodipodi:insensitive="true" />
  <g
     clip-path="url(#clip0_90_3353)"
     id="g2"
     transform="translate(8,8)">
    <path
       d="m 13.3287,6.8455 -9.28919,9.2541 c -1.70014,1.6937 -1.70014,4.4398 0,6.1335 l 9.28919,9.2541 c 1.7002,1.6937 4.4566,1.6937 6.1568,0 l 9.2892,-9.2541 c 1.7,-1.6937 1.7,-4.4398 0,-6.1335 L 19.4855,6.8455 c -1.7002,-1.69374 -4.4566,-1.69374 -6.1568,0 z"
       fill="#ffffff"
       fill-opacity="0.4"
       id="path1" />
    <path
       d="M 13.2566,18.1536 C 9.44066,14.1597 9.58496,7.82863 13.5788,4.01271 17.5727,0.196805 23.9038,0.341079 27.7197,4.33496 31.5355,8.32884 31.3914,14.66 27.3975,18.4759 23.4036,22.2917 17.0725,22.1475 13.2566,18.1536 Z M 16.215,15.327 c 2.2549,2.3599 5.9958,2.4452 8.3558,0.1904 2.36,-2.2548 2.4455,-5.99601 0.1906,-8.356 -2.2548,-2.36001 -5.996,-2.44506 -8.3559,-0.1902 -2.36,2.25483 -2.4453,5.9958 -0.1905,8.3558 z M 0.407174,26.5754 C 0.342551,26.5077 0.3072,26.417 0.309159,26.3233 0.311137,26.2296 0.350127,26.1405 0.417506,26.0756 L 6.76282,19.9675 c 0.30148,-0.2902 0.65696,-0.5179 1.04612,-0.6703 0.38914,-0.1523 0.80433,-0.2262 1.22192,-0.2175 0.41762,0.0087 0.82962,0.0999 1.21214,0.2683 0.3824,0.1685 0.728,0.411 1.0171,0.7136 l 1.2086,1.265 c 0.0646,0.0676 0.0998,0.1582 0.0979,0.2519 -0.002,0.0937 -0.0408,0.1829 -0.1082,0.2478 L 7.37597,26.7187 C 6.43245,27.6269 5.16811,28.1216 3.86124,28.0942 2.55436,28.0669 1.31195,27.5197 0.407233,26.5728 Z"
       fill="#ffffff"
       id="path2" />
  </g>
  <path
     d="m 225.597,20.049 c 2.572,0 4.265,1.7148 4.265,4.5289 v 6.7495 h -1.913 v -6.6396 c 0,-1.8027 -1.033,-2.8141 -2.726,-2.8141 -1.759,0 -3.188,1.0333 -3.188,3.6276 v 5.8261 h -1.912 V 15.93774 h 1.912 v 5.97996 c 0.814,-1.2971 2.023,-1.8687 3.562,-1.8687 z"
     fill="#ffffff"
     id="path3" />
  <path
     d="m 213.286,31.6133 c -3.319,0 -5.782,-2.5283 -5.782,-5.7821 0,-3.2538 2.463,-5.7821 5.782,-5.7821 2.177,0 4.024,1.1432 4.859,2.88 l -1.605,0.9234 c -0.549,-1.1652 -1.781,-1.9347 -3.254,-1.9347 -2.198,0 -3.869,1.6929 -3.869,3.9134 0,2.1985 1.671,3.8913 3.869,3.8913 1.495,0 2.705,-0.7694 3.32,-1.9127 l 1.627,0.9454 c -0.923,1.7148 -2.792,2.8581 -4.947,2.8581 z"
     fill="#ffffff"
     id="path4" />
  <path
     d="m 203.421,22.1816 c 0.703,-1.539 2.044,-2.0446 3.429,-2.0446 v 2.0006 c -1.649,-0.0659 -3.429,0.7695 -3.429,3.3637 v 5.8261 h -1.913 V 20.3348 h 1.913 z"
     fill="#ffffff"
     id="path5" />
  <path
     d="m 196.697,20.3349 h 1.913 v 10.9926 h -1.913 v -1.8908 c -0.879,1.3411 -2.287,2.1766 -4.155,2.1766 -3.056,0 -5.563,-2.5283 -5.563,-5.7821 0,-3.2538 2.507,-5.7821 5.563,-5.7821 1.868,0 3.276,0.8354 4.155,2.1765 z m -3.913,9.4316 c 2.22,0 3.913,-1.6928 3.913,-3.9353 0,-2.2425 -1.693,-3.9354 -3.913,-3.9354 -2.199,0 -3.892,1.6929 -3.892,3.9354 0,2.2425 1.693,3.9353 3.892,3.9353 z"
     fill="#ffffff"
     id="path6" />
  <path
     d="m 176.14,26.7106 c 0.374,1.9786 1.935,3.0999 3.98,3.0999 1.517,0 2.616,-0.7035 3.165,-1.6049 l 1.627,0.9233 c -0.967,1.495 -2.638,2.4844 -4.836,2.4844 -3.54,0 -5.892,-2.4844 -5.892,-5.7821 0,-3.2538 2.33,-5.7821 5.76,-5.7821 3.319,0 5.474,2.7261 5.474,5.8041 0,0.2858 -0.022,0.5716 -0.066,0.8574 z m 3.804,-4.8587 c -2.067,0 -3.496,1.2751 -3.804,3.1878 h 7.343 c -0.329,-2.1765 -1.89,-3.1878 -3.539,-3.1878 z"
     fill="#ffffff"
     id="path7" />
  <path
     d="m 166.998,31.6133 c -2.924,0 -5.013,-1.473 -5.826,-3.7814 l 1.759,-1.0113 c 0.549,1.6928 1.868,2.7921 4.111,2.7921 2.176,0 3.254,-0.9894 3.254,-2.3744 0,-1.5829 -1.363,-2.1106 -3.628,-2.8141 -2.462,-0.7915 -4.837,-1.561 -4.837,-4.419 0,-2.77017 2.265,-4.3531 4.837,-4.3531 2.528,0 4.353,1.42904 5.211,3.3637 l -1.715,0.9894 c -0.55,-1.3191 -1.627,-2.37443 -3.496,-2.37443 -1.649,0 -2.792,0.87943 -2.792,2.28643 0,1.4291 1.077,1.9567 3.232,2.6382 2.682,0.8794 5.21,1.6709 5.21,4.6389 0,2.7042 -2.176,4.419 -5.32,4.419 z"
     fill="#ffffff"
     id="path8" />
  <path
     d="m 138.395,19.9379 c 2.99,0 5.444,2.5204 5.445,5.7861 0,3.2658 -2.455,5.7881 -5.445,5.7881 -1.628,-10e-5 -2.811,-0.5924 -3.615,-1.6006 v 5.374 h -2.878 v -15.041 h 2.88 v 1.293 c 0.802,-1.0083 1.985,-1.5996 3.613,-1.5996 z M 52.9675,15.35193 c 2.5264,1e-5 4.6631,1.18494 5.7657,3.24027 l -2.4151,1.6582 c -0.6821,-1.185 -1.9645,-1.9144 -3.3506,-1.9063 -1.3173,0 -2.0907,0.6694 -2.0908,1.5625 0,0.9599 0.6135,1.4734 3.0225,2.1885 2.5224,0.7809 5.2088,1.6068 5.208,4.7998 0,2.9252 -2.3859,4.7119 -5.7725,4.7119 -3.1568,-10e-5 -5.2624,-1.6182 -6.1719,-3.8389 l 2.4766,-1.7002 c 0.605,1.3721 1.9013,2.5244 3.7871,2.5245 1.8859,0 2.5449,-0.7806 2.5449,-1.6514 0,-1.1612 -1.0668,-1.6087 -3.4316,-2.2783 -2.4298,-0.6919 -4.7949,-1.6964 -4.7949,-4.666 10e-5,-2.94831 2.4963,-4.64457 5.2226,-4.64457 z m 33.9492,4.58787 c 3.22,10e-5 5.5039,2.564 5.504,5.7862 -0.0017,0.3894 -0.0383,0.778 -0.1094,1.1611 l -8.2002,-0.001 c 0.3941,1.4514 1.5875,2.0605 3.0664,2.0606 1.0837,0 2.0152,-0.6241 2.4941,-1.2579 l 2.1006,1.4864 c -1.0227,1.4909 -2.55,2.3388 -4.6377,2.3388 -3.6546,0 -5.9599,-2.5212 -5.9599,-5.788 0,-3.2668 2.327,-5.7862 5.7421,-5.7862 z m 63.7663,0 c 3.219,0 5.504,2.5639 5.504,5.7862 -0.002,0.3893 -0.038,0.7779 -0.108,1.1611 l -8.201,-0.001 c 0.394,1.4515 1.588,2.0606 3.067,2.0606 1.084,-10e-5 2.015,-0.6241 2.493,-1.2579 l 2.101,1.4864 c -1.022,1.4911 -2.55,2.3388 -4.638,2.3388 -3.654,-2e-4 -5.96,-2.5214 -5.96,-5.788 0,-3.2666 2.327,-5.786 5.742,-5.7862 z m -45.2506,-0.0019 c 1.7447,10e-5 3.2576,0.7575 4.1446,2.1718 l -2.1603,1.4444 c -0.4408,-0.6601 -1.181,-1.0689 -1.9843,-1.0957 -0.7134,0 -1.294,0.3072 -1.294,0.8994 10e-4,1.6212 5.7526,0.6136 5.7576,4.6465 0,2.3677 -2.0977,3.5078 -4.4851,3.5078 -2.195,-10e-5 -3.8267,-0.8943 -4.6436,-2.5303 l 2.3145,-1.5488 c 0.3925,0.921 1.3124,1.5186 2.3291,1.5127 0.9153,0 1.5399,-0.3068 1.54,-0.9424 0,-1.6005 -5.7558,-0.7231 -5.7558,-4.582 0,-2.2344 1.9395,-3.4834 4.2373,-3.4834 z m 9.6826,0.3066 h 2.522 v 2.7178 h -2.522 v 4.5596 c 0,1.1834 0.87,1.2062 2.521,1.1181 v 2.5654 c -4.039,0.4383 -5.399,-0.7245 -5.399,-3.6835 v -4.5596 h -1.941 v -2.7178 h 1.941 v -2.2139 l 2.878,-1.95309 z M 63.4851,31.2054 H 60.6072 V 20.2445 h 2.8779 z m 5.0723,0 h -2.878 V 14.71423 h 2.878 z m 7,-3.289 2.5722,-7.6719 h 3.169 L 77.2087,31.2054 H 73.9285 L 69.8386,20.2445 h 3.169 z M 100.116,23.181 c -1.4958,-0.1751 -3.3916,0.4841 -3.3916,2.7842 v 5.2402 h -2.878 V 20.2445 h 2.878 v 1.8848 c 0.5794,-1.4911 1.9855,-2.1045 3.3916,-2.1045 z m 25.294,0 c -1.495,-0.1751 -3.392,0.4841 -3.392,2.7842 v 5.2402 h -2.879 V 20.2445 h 2.879 v 1.8848 c 0.581,-1.491 1.986,-2.1045 3.392,-2.1045 z m 4.45,8.0244 h -2.879 V 20.2445 h 2.879 z m 7.999,-8.5722 c -1.763,0 -3.079,1.2494 -3.079,3.0908 0,1.8414 1.316,3.0908 3.079,3.0908 1.786,0 3.102,-1.2493 3.102,-3.0908 0,-1.8414 -1.316,-3.0908 -3.102,-3.0908 z M 86.9167,22.4818 c -1.4996,-0.0019 -2.5224,0.8098 -2.8496,2.2139 h 5.5469 c -0.3478,-1.5782 -1.5218,-2.2138 -2.6973,-2.2139 z m 63.7673,-0.0019 c -1.5,0 -2.523,0.8109 -2.849,2.2138 h 5.547 c -0.349,-1.578 -1.523,-2.2137 -2.698,-2.2138 z M 62.0359,15.44373 c 0.9815,0.01059 1.7745,0.78998 1.7851,1.7539 -0.0126,0.95937 -0.8081,1.73047 -1.7851,1.73047 -0.969,-0.01 -1.7519,-0.7789 -1.7617,-1.73047 0,-0.9425 0.803,-1.7539 1.7617,-1.7539 z m 66.3731,0 c 0.981,0.01099 1.773,0.79027 1.784,1.7539 -0.013,0.95907 -0.807,1.72997 -1.784,1.73047 -0.969,-0.0095 -1.753,-0.7785 -1.763,-1.73047 0,-0.94246 0.803,-1.75385 1.763,-1.7539 z"
     fill="#ffffff"
     id="path9" />
  <defs
     id="defs9">
    <linearGradient
       id="swatch10"
       inkscape:swatch="solid">
      <stop
         style="stop-color:#005ae0;stop-opacity:0.01000001;"
         offset="0"
         id="stop10" />
    </linearGradient>
  </defs>
  <metadata
     id="metadata1">
    <rdf:RDF>
      <cc:Work
         rdf:about="">
        <dc:title>Silverstripe Search</dc:title>
      </cc:Work>
    </rdf:RDF>
  </metadata>
</svg>
